<svg xmlns="http://www.w3.org/2000/svg" xmlns:xlink="http://www.w3.org/1999/xlink" version="1.1" viewBox="0 0 411.02 70.87"><defs><style> .cls-1 { fill: none; } .cls-2 { fill: #5d5f5d; } .cls-3 { fill: #2270b1; } .cls-4 { fill: #b6d02a; } .cls-5 { clip-path: url(#clippath); } </style><clipPath id="clippath"><rect class="cls-1" y="0" width="411.02" height="70.87"/></clipPath></defs><g><g id="Ebene_1"><g class="cls-5"><path class="cls-4" d="M391.36,69.6c8.7,0,15.75-7.05,15.75-15.75s-7.05-15.75-15.75-15.75-15.75,7.05-15.75,15.75,7.05,15.75,15.75,15.75"/><path class="cls-3" d="M238.29,59.77c6.6,6.2,15.6,9.4,24.1,9.4,15.6,0,24.6-9.4,24.6-20.2,0-9.2-5-14.5-12.9-17.7l-8.4-3.4c-5.6-2.3-9.9-3.7-9.9-7.7,0-3.7,3.2-5.9,8.3-5.9s9.2,1.9,13.5,5.2l7.5-9.3c-5.6-5.6-13.5-8.6-21-8.6-13.6,0-23.2,8.6-23.2,19.4,0,9.5,6.4,15.1,13.1,17.8l8.5,3.6c5.7,2.4,9.4,3.7,9.4,7.8s-3,6.3-9.1,6.3c-5.4,0-11.4-2.8-16.1-6.8l-8.4,10.1Z"/><path class="cls-3" d="M168.23,67.97h18.2l6.1-29.6c1.1-5,1.9-10.3,2.7-15.1h.4c.7,4.8,1.5,10.1,2.6,15.1l6.4,29.6h18.5L234.72,2.78h-14.1l-4.5,30.5c-.9,6.7-1.8,13.6-2.7,20.6h-.4c-1.3-7-2.6-14-3.9-20.6l-7-30.5h-12.5l-7,30.5c-1.3,6.8-2.6,13.7-3.9,20.6h-.4c-.8-6.9-1.8-13.8-2.6-20.6l-4.5-30.5h-15.1l12.1,65.2Z"/><path class="cls-3" d="M302.65,67.97h18.2l6.1-29.6c1.1-5,1.9-10.3,2.7-15.1h.4c.7,4.8,1.5,10.1,2.6,15.1l6.4,29.6h18.5l11.6-65.2h-14.1l-4.5,30.5c-.9,6.7-1.8,13.6-2.7,20.6h-.4c-1.3-7-2.6-14-3.9-20.6l-7-30.5h-12.5l-7,30.5c-1.3,6.8-2.6,13.7-3.9,20.6h-.4c-.8-6.9-1.8-13.8-2.6-20.6l-4.5-30.5h-15.1l12.1,65.2Z"/><path class="cls-2" d="M141.12,67.77l-3.12-5.46c1.56-.54,2.6-1.74,2.6-3.74,0-2.92-2.08-3.88-4.8-3.88h-4.42v13.08h2.32v-5.12h2l2.82,5.12h2.6ZM133.7,56.55h1.86c1.78,0,2.76.52,2.76,2.02s-.98,2.24-2.76,2.24h-1.86v-4.26ZM119.83,67.77h8.08v-1.96h-5.76v-3.86h4.7v-1.96h-4.7v-3.34h5.56v-1.96h-7.88v13.08ZM110.74,67.77h2.32v-11.12h3.78v-1.96h-9.88v1.96h3.78v11.12ZM101.66,67.77h2.32v-13.08h-2.32v13.08ZM90.12,67.77h8.08v-1.96h-5.76v-3.86h4.7v-1.96h-4.7v-3.34h5.56v-1.96h-7.88v13.08ZM86.99,67.77l-3.12-5.46c1.56-.54,2.6-1.74,2.6-3.74,0-2.92-2.08-3.88-4.8-3.88h-4.42v13.08h2.32v-5.12h2l2.82,5.12h2.6ZM79.57,56.55h1.86c1.78,0,2.76.52,2.76,2.02s-.98,2.24-2.76,2.24h-1.86v-4.26ZM65.7,67.77h8.08v-1.96h-5.76v-3.86h4.7v-1.96h-4.7v-3.34h5.56v-1.96h-7.88v13.08ZM55.07,65.97v-4.2h1.96c1.96,0,3,.64,3,2,0,1.48-1.08,2.2-3,2.2h-1.96ZM55.07,60.11v-3.62h1.7c1.7,0,2.56.5,2.56,1.7s-.78,1.92-2.6,1.92h-1.66ZM52.75,67.77h4.52c2.88,0,5.02-1.22,5.02-3.84,0-1.76-1.04-2.78-2.92-3.1v-.08c1.52-.4,2.24-1.6,2.24-2.84,0-2.4-1.98-3.22-4.68-3.22h-4.18v13.08ZM38.54,61.27c0,4.34,2.62,6.74,6.1,6.74,1.8,0,3.34-.68,4.24-1.56v-5.76h-4.56v1.9h2.48v2.82c-.42.38-1.14.58-1.88.58-2.62,0-4-1.8-4-4.78s1.56-4.74,3.88-4.74c1.22,0,1.94.44,2.6,1.08l1.28-1.44c-.82-.84-2.1-1.66-3.9-1.66-3.54,0-6.24,2.54-6.24,6.82M27.96,67.77h8.08v-1.96h-5.76v-3.86h4.7v-1.96h-4.7v-3.34h5.56v-1.96h-7.88v13.08ZM12.26,67.77h2.82l1.58-6.88c.22-1.02.42-2.02.6-3.02h.08c.16,1,.36,2,.58,3.02l1.62,6.88h2.88l2.5-13.08h-2.22l-1.14,6.6c-.2,1.38-.42,2.78-.62,4.18h-.08c-.3-1.4-.58-2.82-.88-4.18l-1.6-6.6h-2.02l-1.6,6.6c-.3,1.38-.58,2.8-.86,4.18h-.08c-.2-1.38-.42-2.78-.64-4.18l-1.14-6.6h-2.38l2.6,13.08Z"/><path class="cls-2" d="M129.17,42.89v-9.32h1.02c2.64,0,4.14,1.4,4.14,4.6s-1.5,4.72-4.14,4.72h-1.02ZM126.85,44.77h3.62c3.88,0,6.24-2.26,6.24-6.6s-2.36-6.48-6.36-6.48h-3.5v13.08ZM112.85,44.77h2.22v-5.72c0-1.46-.2-3.04-.3-4.42h.08l1.34,2.78,4.08,7.36h2.38v-13.08h-2.22v5.68c0,1.46.2,3.12.3,4.46h-.08l-1.34-2.78-4.08-7.36h-2.38v13.08ZM106.36,44.77h2.32v-13.08h-2.32v13.08ZM93.63,43.09c1.24,1.22,2.96,1.92,4.72,1.92,2.94,0,4.7-1.76,4.7-3.88,0-1.9-1.1-2.88-2.64-3.54l-1.78-.74c-1.08-.44-2.08-.82-2.08-1.84,0-.96.82-1.54,2.06-1.54,1.12,0,2,.42,2.84,1.12l1.18-1.48c-1.02-1.02-2.5-1.66-4.02-1.66-2.56,0-4.4,1.6-4.4,3.68,0,1.92,1.36,2.94,2.64,3.48l1.8.78c1.18.5,2.02.84,2.02,1.92,0,1.02-.8,1.68-2.28,1.68-1.2,0-2.46-.6-3.4-1.48l-1.36,1.58ZM86.19,44.77l-3.12-5.46c1.56-.54,2.6-1.74,2.6-3.74,0-2.92-2.08-3.88-4.8-3.88h-4.42v13.08h2.32v-5.12h2l2.82,5.12h2.6ZM78.77,33.55h1.86c1.78,0,2.76.52,2.76,2.02s-.98,2.24-2.76,2.24h-1.86v-4.26ZM69.97,44.77h2.32v-13.08h-2.32v13.08ZM54.27,44.77h2.82l1.58-6.88c.22-1.02.42-2.02.6-3.02h.08c.16,1,.36,2,.58,3.02l1.62,6.88h2.88l2.5-13.08h-2.22l-1.14,6.6c-.2,1.38-.42,2.78-.62,4.18h-.08c-.3-1.4-.58-2.82-.88-4.18l-1.6-6.6h-2.02l-1.6,6.6c-.3,1.38-.58,2.8-.86,4.18h-.08c-.2-1.38-.42-2.78-.64-4.18l-1.14-6.6h-2.38l2.6,13.08Z"/></g></g></g></svg>