<svg xmlns="http://www.w3.org/2000/svg" version="1.1" viewBox="0 0 566.93 283.46"><defs><style> .cls-1 { fill: #fff; } .cls-1, .cls-2 { fill-rule: evenodd; } .cls-2 { fill: #c61824; } </style></defs><g><g id="Ebene_1"><g><path class="cls-2" d="M281.78,10.42L4.07,142.52l277.71,132.36,277.88-132.36L281.78,10.42Z"/><path class="cls-1" d="M105.77,176.16h16.51l.05-67.01h-16.56v67.01ZM209.76,140.35h-.93s-17.89-31.2-17.89-31.2h-16.87v67.01h16.87v-31.9s.84,0,.84,0l18.15,31.9h16.57v-67.01h-16.75v31.2ZM142.97,109.15l-19.52,33.42,19.53,33.59h19.74l-19.66-33.61,19.67-33.4h-19.76ZM245.51,176.16h17.62v-67.01h-17.62v67.01ZM309.31,109.15h-27.03v67.01h16.43v-19.07h10.6c15.69,0,24.77-10.35,24.77-23.79s-7.98-24.15-24.77-24.15ZM306.59,143.41c-3.58,0-7.89,0-7.89,0l.02-20.43h7.87c7.15,0,10.55,4.57,10.55,10.29s-3.87,10.14-10.55,10.14ZM344.87,176.16h38.99v-11.71h-22.39v-14.39h22.39v-13.65h-22.39v-13.83h22.39v-13.41h-38.99v67.01ZM457.96,109.15h-19.03l-12.03,21.24-11.94-21.24h-19.28l19.08,33.96-19.04,33.04h19.19l12.04-20.08,11.61,20.08h19.4l-18.98-33.07,18.98-33.94Z"/><path class="cls-2" d="M472.34,83.16c7.94,0,14.35-6.41,14.35-14.34s-6.47-14.34-14.35-14.34-14.34,6.47-14.34,14.34,6.47,14.34,14.34,14.34h0ZM460.14,68.82c0-6.71,5.49-12.2,12.21-12.2s12.21,5.49,12.21,12.2-5.49,12.21-12.21,12.21-12.21-5.5-12.21-12.21h0ZM466.92,76.02h2.74v-6.11h3.3l2.32,6.11h3.05l-2.81-6.53c.97-.49,2.62-1.04,2.62-3.72,0-4.39-3.3-4.88-6.16-4.88h-5.06v15.14h0ZM469.66,63.51h3.05c1.66,0,2.57.67,2.57,2.01s-1.04,1.96-2.32,1.96h-3.3v-3.97h0Z"/></g></g></g></svg>